<svg width="18" height="19" viewBox="0 0 18 19" fill="none" xmlns="http://www.w3.org/2000/svg">
<g clip-path="url(#clip0_99_382)">
<path d="M0.384067 8.96171C0.383645 10.4859 0.781895 11.9741 1.53916 13.2859L0.311646 17.7677L4.89827 16.5651C6.16688 17.2557 7.58825 17.6176 9.03265 17.6177H9.03644C13.8047 17.6177 17.6861 13.7376 17.6882 8.96853C17.6891 6.65757 16.7899 4.48449 15.1563 2.84958C13.5229 1.21482 11.3506 0.314043 9.03609 0.312988C4.26729 0.312988 0.386106 4.19283 0.384138 8.96171" fill="url(#paint0_linear_99_382)"/>
<path d="M0.0752344 8.95894C0.0747422 10.5379 0.487266 12.0794 1.27153 13.4381L0 18.0806L4.75109 16.8349C6.06016 17.5487 7.53405 17.925 9.03382 17.9255H9.03769C13.977 17.9255 17.9979 13.9059 18 8.96611C18.0008 6.57211 17.0693 4.32091 15.3773 2.62744C13.6851 0.934172 11.4351 0.000984375 9.03769 0C4.09753 0 0.0772031 4.01906 0.0752344 8.95894ZM2.90468 13.2041L2.72728 12.9225C1.98155 11.7368 1.58794 10.3665 1.5885 8.9595C1.59005 4.8536 4.93158 1.51313 9.0405 1.51313C11.0303 1.51397 12.9004 2.28966 14.3069 3.69703C15.7134 5.10455 16.4873 6.97556 16.4868 8.96555C16.485 13.0714 13.1434 16.4123 9.03769 16.4123H9.03473C7.69788 16.4116 6.38677 16.0526 5.24334 15.3742L4.97123 15.2128L2.15184 15.952L2.90468 13.2041Z" fill="url(#paint1_linear_99_382)"/>
<path d="M6.79763 5.21343C6.62986 4.84056 6.45331 4.83304 6.29377 4.8265C6.16313 4.82087 6.01378 4.8213 5.86458 4.8213C5.71524 4.8213 5.47259 4.87748 5.26749 5.10142C5.06217 5.32558 4.48364 5.86726 4.48364 6.96899C4.48364 8.07072 5.28612 9.13553 5.39799 9.28509C5.50999 9.43436 6.94718 11.7676 9.22334 12.6652C11.115 13.4112 11.5 13.2628 11.9105 13.2254C12.3212 13.1881 13.2355 12.6839 13.422 12.1609C13.6087 11.6381 13.6087 11.1899 13.5528 11.0963C13.4968 11.003 13.3474 10.9469 13.1235 10.835C12.8996 10.723 11.7985 10.1812 11.5933 10.1065C11.388 10.0318 11.2387 9.99454 11.0894 10.2188C10.94 10.4426 10.5112 10.9469 10.3805 11.0963C10.2499 11.246 10.1192 11.2646 9.89531 11.1526C9.67123 11.0402 8.95003 10.804 8.0944 10.0412C7.42868 9.44765 6.97924 8.71464 6.8486 8.49041C6.71796 8.26654 6.83461 8.14518 6.9469 8.03359C7.04752 7.93326 7.17092 7.7721 7.28299 7.64139C7.39465 7.51061 7.43192 7.4173 7.50659 7.26796C7.58133 7.11848 7.54392 6.98769 7.48803 6.87569C7.43192 6.76368 6.99675 5.65619 6.79763 5.21343Z" fill="white"/>
</g>
<defs>
<linearGradient id="paint0_linear_99_382" x1="8.99992" y1="17.7677" x2="8.99992" y2="0.312988" gradientUnits="userSpaceOnUse">
<stop stop-color="#1FAF38"/>
<stop offset="1" stop-color="#60D669"/>
</linearGradient>
<linearGradient id="paint1_linear_99_382" x1="9" y1="18.0806" x2="9" y2="0" gradientUnits="userSpaceOnUse">
<stop stop-color="#F9F9F9"/>
<stop offset="1" stop-color="white"/>
</linearGradient>
<clipPath id="clip0_99_382">
<rect width="18" height="18.1406" fill="white"/>
</clipPath>
</defs>
</svg>
